<svg version="1.1" id="Layer_1" xmlns="http://www.w3.org/2000/svg" xmlns:xlink="http://www.w3.org/1999/xlink" x="0px" y="0px"
	 width="100%" viewBox="0 0 1024 1024" enable-background="new 0 0 1024 1024" xml:space="preserve">
<path fill="#000000" opacity="1.000000" stroke="none" 
	d="
M513.917847,792.992188 
	C467.607422,790.850159 439.347717,765.979370 424.216797,723.700684 
	C401.843292,731.269897 379.761108,730.449829 358.086578,721.015991 
	C341.725586,713.894836 328.777435,702.751587 319.194611,687.716064 
	C307.270264,669.006775 302.534027,648.625305 305.873383,626.664307 
	C309.177643,604.934021 319.597778,586.954224 336.532623,572.606201 
	C302.062683,540.567993 294.022003,503.088440 317.105835,462.781952 
	C340.904083,421.228088 379.101929,411.508087 424.314850,423.322662 
	C425.713379,419.203888 426.922455,415.070312 428.501587,411.083313 
	C440.652008,380.405365 463.563171,361.610901 495.281189,355.251526 
	C544.873840,345.308258 585.743469,375.923584 599.110229,415.047668 
	C602.098145,423.793060 602.102661,423.751862 610.730591,421.513855 
	C661.518066,408.340424 710.830139,441.456970 719.778320,491.247162 
	C725.048828,520.573547 716.896545,546.640930 695.140991,567.809265 
	C689.869568,572.938293 689.811401,573.046753 695.019165,578.376892 
	C712.397095,596.163025 721.717041,617.516113 721.023987,642.307251 
	C719.842651,684.563416 690.477539,719.032654 648.447510,727.207275 
	C634.065552,730.004395 620.007263,729.070007 606.142029,724.636108 
	C603.106567,723.665405 601.795471,724.209351 600.808105,727.467102 
	C590.086731,762.843140 565.642883,783.349182 530.292908,791.612732 
	C525.164734,792.811523 519.699646,792.569275 513.917847,792.992188 
M672.906921,597.585754 
	C665.297363,590.268372 656.178223,586.893555 645.670898,587.269043 
	C626.210449,587.964600 606.753113,588.745911 587.291199,589.393433 
	C583.975403,589.503723 582.206543,590.778320 581.303833,594.087646 
	C578.121887,605.751465 571.968201,615.759827 563.463257,624.289246 
	C561.187561,626.571411 560.958679,628.497253 562.612976,631.291626 
	C571.099304,645.626038 579.226746,660.175232 587.839233,674.432129 
	C602.306702,698.381104 634.129761,706.845703 658.714661,693.543884 
	C695.537659,673.620667 702.533752,628.201233 672.906921,597.585754 
M530.469849,384.989563 
	C505.601654,377.825867 479.123291,386.675446 463.681824,407.311432 
	C450.373627,425.096527 449.650299,443.823151 461.469971,462.598694 
	C469.546539,475.428284 477.668365,488.232513 485.504181,501.208588 
	C487.873444,505.131989 490.251129,506.321625 494.815399,504.874481 
	C507.524353,500.844910 520.402527,501.034424 533.127808,504.988525 
	C535.926575,505.858154 537.460266,505.197845 538.888794,502.842438 
	C548.218384,487.459595 557.818176,472.236755 566.928833,456.726196 
	C574.878784,443.191742 574.966003,429.208374 567.630188,415.296509 
	C559.687744,400.233948 547.314575,390.468781 530.469849,384.989563 
M451.712067,647.263977 
	C455.078186,641.908691 458.360657,636.498291 461.840210,631.217773 
	C464.115692,627.764587 463.880219,625.181885 460.807220,622.074829 
	C452.483490,613.658875 446.262482,603.878113 443.766846,592.098999 
	C443.040955,588.672974 441.516479,587.253418 437.703308,587.176941 
	C416.554688,586.752991 395.447662,588.290833 374.312958,588.236206 
	C371.411102,588.228699 368.785583,589.213501 366.085541,590.055298 
	C343.830597,596.993896 328.641968,629.221863 336.140778,653.825195 
	C344.208527,680.295166 361.738281,696.644592 389.502625,699.375122 
	C406.665924,701.063171 422.297699,695.850708 432.176147,680.063110 
	C438.795715,669.483765 444.964142,658.622131 451.712067,647.263977 
M651.100586,557.820923 
	C679.110779,555.271667 693.394348,523.945984 691.529419,502.033356 
	C690.007080,484.146729 681.467041,469.743927 667.368530,458.888519 
	C640.812744,438.441437 606.575195,446.258331 591.037109,472.148590 
	C581.965820,487.263641 573.284302,502.634674 564.235657,517.776428 
	C562.565552,520.571106 562.836121,522.384338 565.009094,524.706665 
	C571.673462,531.828857 576.766052,539.978699 580.074890,549.201660 
	C583.694458,559.290771 583.710754,558.964417 594.270508,559.020264 
	C612.921753,559.118835 631.544983,558.356750 651.100586,557.820923 
M399.500000,557.955444 
	C412.804352,557.490356 426.142273,558.561279 439.431183,556.909363 
	C442.168335,556.569092 443.649719,555.629578 444.412903,553.041260 
	C447.685608,541.942505 453.926331,532.554138 461.552002,524.034668 
	C463.323669,522.055298 464.207062,520.397278 462.475433,517.944397 
	C451.791718,502.811035 443.822968,486.011261 433.658600,470.581207 
	C422.205353,453.194580 405.570526,444.925140 384.910583,447.660278 
	C347.117950,452.663635 322.260620,495.368561 340.104828,530.335632 
	C348.890839,547.552551 361.835907,559.347229 383.009003,557.985840 
	C388.152130,557.655273 393.335266,557.946716 399.500000,557.955444 
M457.523712,726.916016 
	C459.423126,730.423279 460.910950,734.240662 463.284790,737.390381 
	C490.791351,773.885742 541.051208,772.937012 566.415588,732.293091 
	C573.729309,720.573547 575.239502,707.789368 567.873413,695.406555 
	C557.835083,678.531799 547.229187,661.995056 536.912537,645.285095 
	C535.525940,643.039246 534.093750,642.221130 531.207153,642.837402 
	C518.908630,645.462646 506.544708,645.980164 494.273651,642.516602 
	C491.180542,641.643494 489.415802,642.767334 487.782288,645.454956 
	C478.795227,660.241516 469.769592,675.008179 460.496246,689.615967 
	C453.051117,701.343811 451.869659,713.433411 457.523712,726.916016 
M484.699860,605.801636 
	C492.128540,612.910583 501.091095,616.563416 511.261261,616.855042 
	C538.697998,617.642029 558.113586,594.846130 555.807922,568.727661 
	C554.276550,551.380859 544.482788,539.591309 528.905090,533.356201 
	C513.916077,527.356750 498.930511,529.126831 486.138336,539.514404 
	C466.003571,555.864502 463.717316,587.065430 484.699860,605.801636 
z"/>
</svg>